#N canvas 50 315 667 531 10;
#X obj 50 -411 adc~;
#X obj 50 -370 *~ 0.5;
#X obj 83 -410 r inputGain;
#X obj 49 -276 sigmund~ pitch env;
#X obj 49 -251 mtof;
#X obj 34 -209 f;
#X obj 139 -209 f;
#X obj 190 -250 tgl 15 0 empty empty empty 17 7 0 10 -262144 -1 -1
0 1;
#X obj 190 -226 metro 100;
#X obj 190 -272 r metroOnOff;
#X obj 241 -252 r metroRate;
#N canvas 106 131 578 210 LowPassFilter 0;
#X obj 132 49 inlet;
#X floatatom 133 95 5 0 0 0 - - -;
#X obj 133 114 expr ($f1 + $f2)/2;
#X floatatom 238 95 5 0 0 0 - - -;
#X floatatom 133 136 5 0 0 0 - - -;
#X obj 241 169 outlet;
#X obj 343 87 tgl 15 0 empty empty empty 17 7 0 10 -262144 -1 -1 1
1;
#X obj 343 52 inlet;
#X obj 241 152 spigot;
#X obj 310 152 spigot;
#X obj 343 124 expr ($f1 * (-1.0))+1;
#X connect 0 0 1 0;
#X connect 0 0 8 0;
#X connect 1 0 2 0;
#X connect 2 0 4 0;
#X connect 3 0 2 1;
#X connect 4 0 3 0;
#X connect 4 0 9 0;
#X connect 6 0 8 1;
#X connect 6 0 10 0;
#X connect 7 0 6 0;
#X connect 8 0 5 0;
#X connect 9 0 5 0;
#X connect 10 0 9 1;
#X restore 34 -118 pd LowPassFilter;
#X obj 153 -133 tgl 15 0 empty empty empty 17 7 0 10 -262144 -1 -1
1 1;
#X obj 154 -91 tgl 15 0 empty empty empty 17 7 0 10 -262144 -1 -1 1
1;
#X obj 153 -154 r LPF1_OnOff;
#X obj 154 -112 r LPF2_OnOff;
#X obj 34 -45 s frequency;
#X obj 139 -188 s amplitude;
#X text 158 -411 Send a float between 0 and 1;
#X text 259 -225 Snapshots of the values;
#X text 164 -68 These Low Pass Filters are used to smooth the output
and make it more stable \, filtering out rapid changes in the numbers
;
#X text 214 -188 Amplitude being sent to Unity;
#N canvas 106 131 578 210 LowPassFilter 0;
#X obj 132 49 inlet;
#X floatatom 133 95 5 0 0 0 - - -;
#X obj 133 114 expr ($f1 + $f2)/2;
#X floatatom 238 95 5 0 0 0 - - -;
#X floatatom 133 136 5 0 0 0 - - -;
#X obj 241 169 outlet;
#X obj 343 87 tgl 15 0 empty empty empty 17 7 0 10 -262144 -1 -1 1
1;
#X obj 343 52 inlet;
#X obj 241 152 spigot;
#X obj 310 152 spigot;
#X obj 343 124 expr ($f1 * (-1.0))+1;
#X connect 0 0 1 0;
#X connect 0 0 8 0;
#X connect 1 0 2 0;
#X connect 2 0 4 0;
#X connect 3 0 2 1;
#X connect 4 0 3 0;
#X connect 4 0 9 0;
#X connect 6 0 8 1;
#X connect 6 0 10 0;
#X connect 7 0 6 0;
#X connect 8 0 5 0;
#X connect 9 0 5 0;
#X connect 10 0 9 1;
#X restore 34 -76 pd LowPassFilter;
#X obj 256 -169 loadbang;
#X msg 256 -108 1;
#X msg 256 -150 1;
#X obj 0 -354 dac~;
#X obj 261 -371 osc~ 200;
#X obj 261 -393 * 400;
#X text 318 -379 Test Tone to see frequency analysis response sent
both to the output \, and to the sigmund object;
#X text 56 -456 BEWARE OF FEEDBACK!!!!! SET OUTPUT VOLUME TO A LOW
VALUE IN YOUR PLAYBACK DEVICE;
#X floatatom 167 -310 5 0 0 0 - - -;
#X msg 167 -293 npts \$1;
#X text 203 -308 Number of pointes in each analysis window (default
1024);
#X obj 260 -347 loadbang;
#X msg 260 -327 1024;
#X obj 322 -327 r npts;
#X connect 0 0 1 0;
#X connect 1 0 26 0;
#X connect 1 0 26 1;
#X connect 2 0 1 1;
#X connect 2 0 28 0;
#X connect 3 0 4 0;
#X connect 3 1 6 1;
#X connect 4 0 5 1;
#X connect 5 0 11 0;
#X connect 6 0 17 0;
#X connect 7 0 8 0;
#X connect 8 0 6 0;
#X connect 8 0 5 0;
#X connect 9 0 7 0;
#X connect 10 0 8 1;
#X connect 11 0 22 0;
#X connect 12 0 11 1;
#X connect 13 0 22 1;
#X connect 14 0 12 0;
#X connect 15 0 13 0;
#X connect 22 0 16 0;
#X connect 23 0 25 0;
#X connect 24 0 13 0;
#X connect 25 0 12 0;
#X connect 25 0 24 0;
#X connect 27 0 3 0;
#X connect 27 0 26 1;
#X connect 28 0 27 0;
#X connect 31 0 32 0;
#X connect 32 0 3 0;
#X connect 34 0 35 0;
#X connect 35 0 31 0;
#X connect 36 0 31 0;
